<?xml version="1.0" encoding="UTF-8" standalone="no"?><svg xmlns="http://www.w3.org/2000/svg" xmlns:xlink="http://www.w3.org/1999/xlink" clip-rule="evenodd" stroke-miterlimit="10" viewBox="0 0 1024 768"><desc>SVG generated by Keynote</desc><defs></defs><g transform="matrix(1.00, 0.00, -0.00, -1.00, 0.0, 768.0)"><path d="M 0.0 768.0 L 1024.0 768.0 L 1024.0 0.0 L 0.0 0.0 Z M 0.0 768.0 " fill="#000000"></path><text xml:space="preserve" font-family="Helvetica-Light,Helvetica" font-size="22.8" fill="#FEFFFF" transform="matrix(1.00, 0.00, -0.00, -1.00, 79.0, 637.2)">•</text><text xml:space="preserve" font-family="Helvetica-Light,Helvetica" font-size="30.4" fill="#FEFFFF" transform="matrix(1.00, 0.00, -0.00, -1.00, 107.0, 635.0)">C</text><text xml:space="preserve" font-family="Helvetica-Light,Helvetica" font-size="30.4" fill="#FEFFFF" transform="matrix(1.00, 0.00, -0.00, -1.00, 128.9, 635.0)">u</text><text xml:space="preserve" font-family="Helvetica-Light,Helvetica" font-size="30.4" fill="#FEFFFF" transform="matrix(1.00, 0.00, -0.00, -1.00, 145.9, 635.0)">s</text><text xml:space="preserve" font-family="Helvetica-Light,Helvetica" font-size="30.4" fill="#FEFFFF" transform="matrix(1.00, 0.00, -0.00, -1.00, 161.1, 635.0)">t</text><text xml:space="preserve" font-family="Helvetica-Light,Helvetica" font-size="30.4" fill="#FEFFFF" transform="matrix(1.00, 0.00, -0.00, -1.00, 169.5, 635.0)">o</text><text xml:space="preserve" font-family="Helvetica-Light,Helvetica" font-size="30.4" fill="#FEFFFF" transform="matrix(1.00, 0.00, -0.00, -1.00, 186.4, 635.0)">m</text><text xml:space="preserve" font-family="Helvetica-Light,Helvetica" font-size="30.4" fill="#FEFFFF" transform="matrix(1.00, 0.00, -0.00, -1.00, 211.7, 635.0)"> </text><text xml:space="preserve" font-family="Helvetica-Light,Helvetica" font-size="30.4" fill="#FEFFFF" transform="matrix(1.00, 0.00, -0.00, -1.00, 220.2, 635.0)">e</text><text xml:space="preserve" font-family="Helvetica-Light,Helvetica" font-size="30.4" fill="#FEFFFF" transform="matrix(1.00, 0.00, -0.00, -1.00, 237.1, 635.0)">v</text><text xml:space="preserve" font-family="Helvetica-Light,Helvetica" font-size="30.4" fill="#FEFFFF" transform="matrix(1.00, 0.00, -0.00, -1.00, 252.3, 635.0)">e</text><text xml:space="preserve" font-family="Helvetica-Light,Helvetica" font-size="30.4" fill="#FEFFFF" transform="matrix(1.00, 0.00, -0.00, -1.00, 269.2, 635.0)">n</text><text xml:space="preserve" font-family="Helvetica-Light,Helvetica" font-size="30.4" fill="#FEFFFF" transform="matrix(1.00, 0.00, -0.00, -1.00, 286.1, 635.0)">t</text><text xml:space="preserve" font-family="Helvetica-Light,Helvetica" font-size="30.4" fill="#FEFFFF" transform="matrix(1.00, 0.00, -0.00, -1.00, 294.5, 635.0)"> </text><text xml:space="preserve" font-family="Helvetica-Light,Helvetica" font-size="30.4" fill="#FEFFFF" transform="matrix(1.00, 0.00, -0.00, -1.00, 303.0, 635.0)">w</text><text xml:space="preserve" font-family="Helvetica-Light,Helvetica" font-size="30.4" fill="#FEFFFF" transform="matrix(1.00, 0.00, -0.00, -1.00, 324.9, 635.0)">i</text><text xml:space="preserve" font-family="Helvetica-Light,Helvetica" font-size="30.4" fill="#FEFFFF" transform="matrix(1.00, 0.00, -0.00, -1.00, 331.7, 635.0)">t</text><text xml:space="preserve" font-family="Helvetica-Light,Helvetica" font-size="30.4" fill="#FEFFFF" transform="matrix(1.00, 0.00, -0.00, -1.00, 340.1, 635.0)">h</text><text xml:space="preserve" font-family="Helvetica-Light,Helvetica" font-size="30.4" fill="#FEFFFF" transform="matrix(1.00, 0.00, -0.00, -1.00, 357.0, 635.0)"> </text><text xml:space="preserve" font-family="Helvetica-Light,Helvetica" font-size="30.4" fill="#FEFFFF" transform="matrix(1.00, 0.00, -0.00, -1.00, 365.5, 635.0)">d</text><text xml:space="preserve" font-family="Helvetica-Light,Helvetica" font-size="30.4" fill="#FEFFFF" transform="matrix(1.00, 0.00, -0.00, -1.00, 384.1, 635.0)">a</text><text xml:space="preserve" font-family="Helvetica-Light,Helvetica" font-size="30.4" fill="#FEFFFF" transform="matrix(1.00, 0.00, -0.00, -1.00, 401.0, 635.0)">t</text><text xml:space="preserve" font-family="Helvetica-Light,Helvetica" font-size="30.4" fill="#FEFFFF" transform="matrix(1.00, 0.00, -0.00, -1.00, 409.4, 635.0)">a</text><text xml:space="preserve" font-family="Helvetica-Light,Helvetica" font-size="30.4" fill="#FEFFFF" transform="matrix(1.00, 0.00, -0.00, -1.00, 426.3, 635.0)"> </text><text xml:space="preserve" font-family="Helvetica-Light,Helvetica" font-size="22.8" fill="#FEFFFF" transform="matrix(1.00, 0.00, -0.00, -1.00, 114.0, 567.6)">•</text><text xml:space="preserve" font-family="Helvetica-Light,Helvetica" font-size="30.4" fill="#FEFFFF" transform="matrix(1.00, 0.00, -0.00, -1.00, 142.0, 565.4)">i</text><text xml:space="preserve" font-family="Helvetica-Light,Helvetica" font-size="30.4" fill="#FEFFFF" transform="matrix(1.00, 0.00, -0.00, -1.00, 148.7, 565.4)">n</text><text xml:space="preserve" font-family="Helvetica-Light,Helvetica" font-size="30.4" fill="#FEFFFF" transform="matrix(1.00, 0.00, -0.00, -1.00, 165.7, 565.4)"> </text><text xml:space="preserve" font-family="Helvetica-Light,Helvetica" font-size="30.4" fill="#FEFFFF" transform="matrix(1.00, 0.00, -0.00, -1.00, 174.1, 565.4)">w</text><text xml:space="preserve" font-family="Helvetica-Light,Helvetica" font-size="30.4" fill="#FEFFFF" transform="matrix(1.00, 0.00, -0.00, -1.00, 196.1, 565.4)">e</text><text xml:space="preserve" font-family="Helvetica-Light,Helvetica" font-size="30.4" fill="#FEFFFF" transform="matrix(1.00, 0.00, -0.00, -1.00, 213.0, 565.4)">b</text><text xml:space="preserve" font-family="Helvetica-Light,Helvetica" font-size="30.4" fill="#FEFFFF" transform="matrix(1.00, 0.00, -0.00, -1.00, 231.5, 565.4)">i</text><text xml:space="preserve" font-family="Helvetica-Light,Helvetica" font-size="30.4" fill="#FEFFFF" transform="matrix(1.00, 0.00, -0.00, -1.00, 238.3, 565.4)">d</text><text xml:space="preserve" font-family="Helvetica-Light,Helvetica" font-size="30.4" fill="#FEFFFF" transform="matrix(1.00, 0.00, -0.00, -1.00, 256.9, 565.4)">l</text><text xml:space="preserve" font-family="Helvetica-Light,Helvetica" font-size="30.4" fill="#FEFFFF" transform="matrix(1.00, 0.00, -0.00, -1.00, 263.6, 565.4)"> </text><text xml:space="preserve" font-family="Helvetica-Light,Helvetica" font-size="22.8" fill="#FEFFFF" transform="matrix(1.00, 0.00, -0.00, -1.00, 149.0, 498.0)">•</text><text xml:space="preserve" font-family="Helvetica-Light,Helvetica" font-size="30.4" fill="#FEFFFF" transform="matrix(1.00, 0.00, -0.00, -1.00, 177.0, 495.8)">i</text><text xml:space="preserve" font-family="Helvetica-Light,Helvetica" font-size="30.4" fill="#FEFFFF" transform="matrix(1.00, 0.00, -0.00, -1.00, 183.7, 495.8)">n</text><text xml:space="preserve" font-family="Helvetica-Light,Helvetica" font-size="30.4" fill="#FEFFFF" transform="matrix(1.00, 0.00, -0.00, -1.00, 200.7, 495.8)">t</text><text xml:space="preserve" font-family="Helvetica-Light,Helvetica" font-size="30.4" fill="#FEFFFF" transform="matrix(1.00, 0.00, -0.00, -1.00, 209.1, 495.8)">e</text><text xml:space="preserve" font-family="Helvetica-Light,Helvetica" font-size="30.4" fill="#FEFFFF" transform="matrix(1.00, 0.00, -0.00, -1.00, 226.0, 495.8)">r</text><text xml:space="preserve" font-family="Helvetica-Light,Helvetica" font-size="30.4" fill="#FEFFFF" transform="matrix(1.00, 0.00, -0.00, -1.00, 236.7, 495.8)">f</text><text xml:space="preserve" font-family="Helvetica-Light,Helvetica" font-size="30.4" fill="#FEFFFF" transform="matrix(1.00, 0.00, -0.00, -1.00, 245.1, 495.8)">a</text><text xml:space="preserve" font-family="Helvetica-Light,Helvetica" font-size="30.4" fill="#FEFFFF" transform="matrix(1.00, 0.00, -0.00, -1.00, 262.0, 495.8)">c</text><text xml:space="preserve" font-family="Helvetica-Light,Helvetica" font-size="30.4" fill="#FEFFFF" transform="matrix(1.00, 0.00, -0.00, -1.00, 278.9, 495.8)">e</text><text xml:space="preserve" font-family="Helvetica-Light,Helvetica" font-size="30.4" fill="#FEFFFF" transform="matrix(1.00, 0.00, -0.00, -1.00, 295.8, 495.8)"> </text><text xml:space="preserve" font-family="Helvetica-Light,Helvetica" font-size="30.4" fill="#FEFFFF" transform="matrix(1.00, 0.00, -0.00, -1.00, 304.3, 495.8)">C</text><text xml:space="preserve" font-family="Helvetica-Light,Helvetica" font-size="30.4" fill="#FEFFFF" transform="matrix(1.00, 0.00, -0.00, -1.00, 326.2, 495.8)">u</text><text xml:space="preserve" font-family="Helvetica-Light,Helvetica" font-size="30.4" fill="#FEFFFF" transform="matrix(1.00, 0.00, -0.00, -1.00, 343.1, 495.8)">s</text><text xml:space="preserve" font-family="Helvetica-Light,Helvetica" font-size="30.4" fill="#FEFFFF" transform="matrix(1.00, 0.00, -0.00, -1.00, 358.3, 495.8)">t</text><text xml:space="preserve" font-family="Helvetica-Light,Helvetica" font-size="30.4" fill="#FEFFFF" transform="matrix(1.00, 0.00, -0.00, -1.00, 366.8, 495.8)">o</text><text xml:space="preserve" font-family="Helvetica-Light,Helvetica" font-size="30.4" fill="#FEFFFF" transform="matrix(1.00, 0.00, -0.00, -1.00, 383.7, 495.8)">m</text><text xml:space="preserve" font-family="Helvetica-Light,Helvetica" font-size="30.4" fill="#FEFFFF" transform="matrix(1.00, 0.00, -0.00, -1.00, 409.0, 495.8)">E</text><text xml:space="preserve" font-family="Helvetica-Light,Helvetica" font-size="30.4" fill="#FEFFFF" transform="matrix(1.00, 0.00, -0.00, -1.00, 427.6, 495.8)">v</text><text xml:space="preserve" font-family="Helvetica-Light,Helvetica" font-size="30.4" fill="#FEFFFF" transform="matrix(1.00, 0.00, -0.00, -1.00, 442.8, 495.8)">e</text><text xml:space="preserve" font-family="Helvetica-Light,Helvetica" font-size="30.4" fill="#FEFFFF" transform="matrix(1.00, 0.00, -0.00, -1.00, 459.7, 495.8)">n</text><text xml:space="preserve" font-family="Helvetica-Light,Helvetica" font-size="30.4" fill="#FEFFFF" transform="matrix(1.00, 0.00, -0.00, -1.00, 476.6, 495.8)">t</text><text xml:space="preserve" font-family="Helvetica-Light,Helvetica" font-size="30.4" fill="#FEFFFF" transform="matrix(1.00, 0.00, -0.00, -1.00, 485.0, 495.8)">N</text><text xml:space="preserve" font-family="Helvetica-Light,Helvetica" font-size="30.4" fill="#FEFFFF" transform="matrix(1.00, 0.00, -0.00, -1.00, 507.0, 495.8)">a</text><text xml:space="preserve" font-family="Helvetica-Light,Helvetica" font-size="30.4" fill="#FEFFFF" transform="matrix(1.00, 0.00, -0.00, -1.00, 523.9, 495.8)">m</text><text xml:space="preserve" font-family="Helvetica-Light,Helvetica" font-size="30.4" fill="#FEFFFF" transform="matrix(1.00, 0.00, -0.00, -1.00, 549.2, 495.8)">e</text><text xml:space="preserve" font-family="Helvetica-Light,Helvetica" font-size="30.4" fill="#FEFFFF" transform="matrix(1.00, 0.00, -0.00, -1.00, 566.1, 495.8)"> </text><text xml:space="preserve" font-family="Helvetica-Light,Helvetica" font-size="30.4" fill="#FEFFFF" transform="matrix(1.00, 0.00, -0.00, -1.00, 574.6, 495.8)">:</text><text xml:space="preserve" font-family="Helvetica-Light,Helvetica" font-size="30.4" fill="#FEFFFF" transform="matrix(1.00, 0.00, -0.00, -1.00, 583.0, 495.8)"> </text><text xml:space="preserve" font-family="Helvetica-Light,Helvetica" font-size="30.4" fill="#FEFFFF" transform="matrix(1.00, 0.00, -0.00, -1.00, 591.5, 495.8)">E</text><text xml:space="preserve" font-family="Helvetica-Light,Helvetica" font-size="30.4" fill="#FEFFFF" transform="matrix(1.00, 0.00, -0.00, -1.00, 610.0, 495.8)">v</text><text xml:space="preserve" font-family="Helvetica-Light,Helvetica" font-size="30.4" fill="#FEFFFF" transform="matrix(1.00, 0.00, -0.00, -1.00, 625.2, 495.8)">e</text><text xml:space="preserve" font-family="Helvetica-Light,Helvetica" font-size="30.4" fill="#FEFFFF" transform="matrix(1.00, 0.00, -0.00, -1.00, 642.2, 495.8)">n</text><text xml:space="preserve" font-family="Helvetica-Light,Helvetica" font-size="30.4" fill="#FEFFFF" transform="matrix(1.00, 0.00, -0.00, -1.00, 659.1, 495.8)">t</text><text xml:space="preserve" font-family="Helvetica-Light,Helvetica" font-size="30.4" fill="#FEFFFF" transform="matrix(1.00, 0.00, -0.00, -1.00, 667.5, 495.8)"> </text><text xml:space="preserve" font-family="Helvetica-Light,Helvetica" font-size="22.8" fill="#FEFFFF" transform="matrix(1.00, 0.00, -0.00, -1.00, 114.0, 428.4)">•</text><text xml:space="preserve" font-family="Helvetica-Light,Helvetica" font-size="30.4" fill="#FEFFFF" transform="matrix(1.00, 0.00, -0.00, -1.00, 142.0, 426.2)">i</text><text xml:space="preserve" font-family="Helvetica-Light,Helvetica" font-size="30.4" fill="#FEFFFF" transform="matrix(1.00, 0.00, -0.00, -1.00, 148.7, 426.2)">n</text><text xml:space="preserve" font-family="Helvetica-Light,Helvetica" font-size="30.4" fill="#FEFFFF" transform="matrix(1.00, 0.00, -0.00, -1.00, 165.7, 426.2)"> </text><text xml:space="preserve" font-family="Helvetica-Light,Helvetica" font-size="30.4" fill="#FEFFFF" transform="matrix(1.00, 0.00, -0.00, -1.00, 174.1, 426.2)">m</text><text xml:space="preserve" font-family="Helvetica-Light,Helvetica" font-size="30.4" fill="#FEFFFF" transform="matrix(1.00, 0.00, -0.00, -1.00, 199.4, 426.2)">o</text><text xml:space="preserve" font-family="Helvetica-Light,Helvetica" font-size="30.4" fill="#FEFFFF" transform="matrix(1.00, 0.00, -0.00, -1.00, 216.3, 426.2)">z</text><text xml:space="preserve" font-family="Helvetica-Light,Helvetica" font-size="30.4" fill="#FEFFFF" transform="matrix(1.00, 0.00, -0.00, -1.00, 231.5, 426.2)">.</text><text xml:space="preserve" font-family="Helvetica-Light,Helvetica" font-size="30.4" fill="#FEFFFF" transform="matrix(1.00, 0.00, -0.00, -1.00, 240.0, 426.2)">b</text><text xml:space="preserve" font-family="Helvetica-Light,Helvetica" font-size="30.4" fill="#FEFFFF" transform="matrix(1.00, 0.00, -0.00, -1.00, 258.6, 426.2)">u</text><text xml:space="preserve" font-family="Helvetica-Light,Helvetica" font-size="30.4" fill="#FEFFFF" transform="matrix(1.00, 0.00, -0.00, -1.00, 275.5, 426.2)">i</text><text xml:space="preserve" font-family="Helvetica-Light,Helvetica" font-size="30.4" fill="#FEFFFF" transform="matrix(1.00, 0.00, -0.00, -1.00, 282.2, 426.2)">l</text><text xml:space="preserve" font-family="Helvetica-Light,Helvetica" font-size="30.4" fill="#FEFFFF" transform="matrix(1.00, 0.00, -0.00, -1.00, 289.0, 426.2)">d</text><text xml:space="preserve" font-family="Helvetica-Light,Helvetica" font-size="30.4" fill="#FEFFFF" transform="matrix(1.00, 0.00, -0.00, -1.00, 307.5, 426.2)"> </text><text xml:space="preserve" font-family="Helvetica-Light,Helvetica" font-size="22.8" fill="#FEFFFF" transform="matrix(1.00, 0.00, -0.00, -1.00, 149.0, 358.8)">•</text><text xml:space="preserve" font-family="Helvetica-Light,Helvetica" font-size="30.4" fill="#FEFFFF" transform="matrix(1.00, 0.00, -0.00, -1.00, 177.0, 356.6)">G</text><text xml:space="preserve" font-family="Helvetica-Light,Helvetica" font-size="30.4" fill="#FEFFFF" transform="matrix(1.00, 0.00, -0.00, -1.00, 200.7, 356.6)">E</text><text xml:space="preserve" font-family="Helvetica-Light,Helvetica" font-size="30.4" fill="#FEFFFF" transform="matrix(1.00, 0.00, -0.00, -1.00, 219.2, 356.6)">N</text><text xml:space="preserve" font-family="Helvetica-Light,Helvetica" font-size="30.4" fill="#FEFFFF" transform="matrix(1.00, 0.00, -0.00, -1.00, 241.2, 356.6)">E</text><text xml:space="preserve" font-family="Helvetica-Light,Helvetica" font-size="30.4" fill="#FEFFFF" transform="matrix(1.00, 0.00, -0.00, -1.00, 259.7, 356.6)">R</text><text xml:space="preserve" font-family="Helvetica-Light,Helvetica" font-size="30.4" fill="#FEFFFF" transform="matrix(1.00, 0.00, -0.00, -1.00, 280.0, 356.6)">A</text><text xml:space="preserve" font-family="Helvetica-Light,Helvetica" font-size="30.4" fill="#FEFFFF" transform="matrix(1.00, 0.00, -0.00, -1.00, 297.5, 356.6)">T</text><text xml:space="preserve" font-family="Helvetica-Light,Helvetica" font-size="30.4" fill="#FEFFFF" transform="matrix(1.00, 0.00, -0.00, -1.00, 314.4, 356.6)">E</text><text xml:space="preserve" font-family="Helvetica-Light,Helvetica" font-size="30.4" fill="#FEFFFF" transform="matrix(1.00, 0.00, -0.00, -1.00, 333.0, 356.6)">D</text><text xml:space="preserve" font-family="Helvetica-Light,Helvetica" font-size="30.4" fill="#FEFFFF" transform="matrix(1.00, 0.00, -0.00, -1.00, 354.9, 356.6)">_</text><text xml:space="preserve" font-family="Helvetica-Light,Helvetica" font-size="30.4" fill="#FEFFFF" transform="matrix(1.00, 0.00, -0.00, -1.00, 370.1, 356.6)">E</text><text xml:space="preserve" font-family="Helvetica-Light,Helvetica" font-size="30.4" fill="#FEFFFF" transform="matrix(1.00, 0.00, -0.00, -1.00, 388.7, 356.6)">V</text><text xml:space="preserve" font-family="Helvetica-Light,Helvetica" font-size="30.4" fill="#FEFFFF" transform="matrix(1.00, 0.00, -0.00, -1.00, 407.3, 356.6)">E</text><text xml:space="preserve" font-family="Helvetica-Light,Helvetica" font-size="30.4" fill="#FEFFFF" transform="matrix(1.00, 0.00, -0.00, -1.00, 425.9, 356.6)">N</text><text xml:space="preserve" font-family="Helvetica-Light,Helvetica" font-size="30.4" fill="#FEFFFF" transform="matrix(1.00, 0.00, -0.00, -1.00, 447.8, 356.6)">T</text><text xml:space="preserve" font-family="Helvetica-Light,Helvetica" font-size="30.4" fill="#FEFFFF" transform="matrix(1.00, 0.00, -0.00, -1.00, 464.7, 356.6)">S</text><text xml:space="preserve" font-family="Helvetica-Light,Helvetica" font-size="30.4" fill="#FEFFFF" transform="matrix(1.00, 0.00, -0.00, -1.00, 483.3, 356.6)">_</text><text xml:space="preserve" font-family="Helvetica-Light,Helvetica" font-size="30.4" fill="#FEFFFF" transform="matrix(1.00, 0.00, -0.00, -1.00, 498.5, 356.6)">W</text><text xml:space="preserve" font-family="Helvetica-Light,Helvetica" font-size="30.4" fill="#FEFFFF" transform="matrix(1.00, 0.00, -0.00, -1.00, 525.5, 356.6)">E</text><text xml:space="preserve" font-family="Helvetica-Light,Helvetica" font-size="30.4" fill="#FEFFFF" transform="matrix(1.00, 0.00, -0.00, -1.00, 544.1, 356.6)">B</text><text xml:space="preserve" font-family="Helvetica-Light,Helvetica" font-size="30.4" fill="#FEFFFF" transform="matrix(1.00, 0.00, -0.00, -1.00, 564.4, 356.6)">I</text><text xml:space="preserve" font-family="Helvetica-Light,Helvetica" font-size="30.4" fill="#FEFFFF" transform="matrix(1.00, 0.00, -0.00, -1.00, 572.8, 356.6)">D</text><text xml:space="preserve" font-family="Helvetica-Light,Helvetica" font-size="30.4" fill="#FEFFFF" transform="matrix(1.00, 0.00, -0.00, -1.00, 594.8, 356.6)">L</text><text xml:space="preserve" font-family="Helvetica-Light,Helvetica" font-size="30.4" fill="#FEFFFF" transform="matrix(1.00, 0.00, -0.00, -1.00, 611.7, 356.6)">_</text><text xml:space="preserve" font-family="Helvetica-Light,Helvetica" font-size="30.4" fill="#FEFFFF" transform="matrix(1.00, 0.00, -0.00, -1.00, 626.9, 356.6)">F</text><text xml:space="preserve" font-family="Helvetica-Light,Helvetica" font-size="30.4" fill="#FEFFFF" transform="matrix(1.00, 0.00, -0.00, -1.00, 643.8, 356.6)">I</text><text xml:space="preserve" font-family="Helvetica-Light,Helvetica" font-size="30.4" fill="#FEFFFF" transform="matrix(1.00, 0.00, -0.00, -1.00, 652.2, 356.6)">L</text><text xml:space="preserve" font-family="Helvetica-Light,Helvetica" font-size="30.4" fill="#FEFFFF" transform="matrix(1.00, 0.00, -0.00, -1.00, 669.1, 356.6)">E</text><text xml:space="preserve" font-family="Helvetica-Light,Helvetica" font-size="30.4" fill="#FEFFFF" transform="matrix(1.00, 0.00, -0.00, -1.00, 687.7, 356.6)">S</text><text xml:space="preserve" font-family="Helvetica-Light,Helvetica" font-size="30.4" fill="#FEFFFF" transform="matrix(1.00, 0.00, -0.00, -1.00, 706.3, 356.6)"> </text><text xml:space="preserve" font-family="Helvetica-Light,Helvetica" font-size="30.4" fill="#FEFFFF" transform="matrix(1.00, 0.00, -0.00, -1.00, 714.7, 356.6)">=</text><text xml:space="preserve" font-family="Helvetica-Light,Helvetica" font-size="30.4" fill="#FEFFFF" transform="matrix(1.00, 0.00, -0.00, -1.00, 734.8, 356.6)"> </text><text xml:space="preserve" font-family="Helvetica-Light,Helvetica" font-size="30.4" fill="#FEFFFF" transform="matrix(1.00, 0.00, -0.00, -1.00, 743.2, 356.6)">[</text><text xml:space="preserve" font-family="Helvetica-Light,Helvetica" font-size="30.4" fill="#FEFFFF" transform="matrix(1.00, 0.00, -0.00, -1.00, 753.4, 356.6)">]</text><text xml:space="preserve" font-family="Helvetica-Light,Helvetica" font-size="30.4" fill="#FEFFFF" transform="matrix(1.00, 0.00, -0.00, -1.00, 763.5, 356.6)"> </text><text xml:space="preserve" font-family="Helvetica-Light,Helvetica" font-size="22.8" fill="#FEFFFF" transform="matrix(1.00, 0.00, -0.00, -1.00, 79.0, 289.2)">•</text><text xml:space="preserve" font-family="Helvetica-Light,Helvetica" font-size="30.4" fill="#FEFFFF" transform="matrix(1.00, 0.00, -0.00, -1.00, 107.0, 287.0)">C</text><text xml:space="preserve" font-family="Helvetica-Light,Helvetica" font-size="30.4" fill="#FEFFFF" transform="matrix(1.00, 0.00, -0.00, -1.00, 128.9, 287.0)">h</text><text xml:space="preserve" font-family="Helvetica-Light,Helvetica" font-size="30.4" fill="#FEFFFF" transform="matrix(1.00, 0.00, -0.00, -1.00, 145.9, 287.0)">r</text><text xml:space="preserve" font-family="Helvetica-Light,Helvetica" font-size="30.4" fill="#FEFFFF" transform="matrix(1.00, 0.00, -0.00, -1.00, 155.4, 287.0)">o</text><text xml:space="preserve" font-family="Helvetica-Light,Helvetica" font-size="30.4" fill="#FEFFFF" transform="matrix(1.00, 0.00, -0.00, -1.00, 172.3, 287.0)">m</text><text xml:space="preserve" font-family="Helvetica-Light,Helvetica" font-size="30.4" fill="#FEFFFF" transform="matrix(1.00, 0.00, -0.00, -1.00, 197.7, 287.0)">e</text><text xml:space="preserve" font-family="Helvetica-Light,Helvetica" font-size="30.4" fill="#FEFFFF" transform="matrix(1.00, 0.00, -0.00, -1.00, 214.6, 287.0)">-</text><text xml:space="preserve" font-family="Helvetica-Light,Helvetica" font-size="30.4" fill="#FEFFFF" transform="matrix(1.00, 0.00, -0.00, -1.00, 224.7, 287.0)">o</text><text xml:space="preserve" font-family="Helvetica-Light,Helvetica" font-size="30.4" fill="#FEFFFF" transform="matrix(1.00, 0.00, -0.00, -1.00, 241.6, 287.0)">n</text><text xml:space="preserve" font-family="Helvetica-Light,Helvetica" font-size="30.4" fill="#FEFFFF" transform="matrix(1.00, 0.00, -0.00, -1.00, 258.5, 287.0)">l</text><text xml:space="preserve" font-family="Helvetica-Light,Helvetica" font-size="30.4" fill="#FEFFFF" transform="matrix(1.00, 0.00, -0.00, -1.00, 265.2, 287.0)">y</text><text xml:space="preserve" font-family="Helvetica-Light,Helvetica" font-size="30.4" fill="#FEFFFF" transform="matrix(1.00, 0.00, -0.00, -1.00, 280.4, 287.0)"> </text><text xml:space="preserve" font-family="Helvetica-Light,Helvetica" font-size="30.4" fill="#FEFFFF" transform="matrix(1.00, 0.00, -0.00, -1.00, 288.9, 287.0)">d</text><text xml:space="preserve" font-family="Helvetica-Light,Helvetica" font-size="30.4" fill="#FEFFFF" transform="matrix(1.00, 0.00, -0.00, -1.00, 307.5, 287.0)">o</text><text xml:space="preserve" font-family="Helvetica-Light,Helvetica" font-size="30.4" fill="#FEFFFF" transform="matrix(1.00, 0.00, -0.00, -1.00, 324.4, 287.0)">m</text><text xml:space="preserve" font-family="Helvetica-Light,Helvetica" font-size="30.4" fill="#FEFFFF" transform="matrix(1.00, 0.00, -0.00, -1.00, 349.7, 287.0)"> </text><text xml:space="preserve" font-family="Helvetica-Light,Helvetica" font-size="30.4" fill="#FEFFFF" transform="matrix(1.00, 0.00, -0.00, -1.00, 358.1, 287.0)">e</text><text xml:space="preserve" font-family="Helvetica-Light,Helvetica" font-size="30.4" fill="#FEFFFF" transform="matrix(1.00, 0.00, -0.00, -1.00, 375.0, 287.0)">v</text><text xml:space="preserve" font-family="Helvetica-Light,Helvetica" font-size="30.4" fill="#FEFFFF" transform="matrix(1.00, 0.00, -0.00, -1.00, 390.2, 287.0)">e</text><text xml:space="preserve" font-family="Helvetica-Light,Helvetica" font-size="30.4" fill="#FEFFFF" transform="matrix(1.00, 0.00, -0.00, -1.00, 407.1, 287.0)">n</text><text xml:space="preserve" font-family="Helvetica-Light,Helvetica" font-size="30.4" fill="#FEFFFF" transform="matrix(1.00, 0.00, -0.00, -1.00, 424.0, 287.0)">t</text><text xml:space="preserve" font-family="Helvetica-Light,Helvetica" font-size="30.4" fill="#FEFFFF" transform="matrix(1.00, 0.00, -0.00, -1.00, 432.5, 287.0)"> </text><text xml:space="preserve" font-family="Helvetica-Light,Helvetica" font-size="22.8" fill="#FEFFFF" transform="matrix(1.00, 0.00, -0.00, -1.00, 114.0, 219.6)">•</text><text xml:space="preserve" font-family="Helvetica-Light,Helvetica" font-size="30.4" fill="#FEFFFF" transform="matrix(1.00, 0.00, -0.00, -1.00, 142.0, 217.4)">e</text><text xml:space="preserve" font-family="Helvetica-Light,Helvetica" font-size="30.4" fill="#FEFFFF" transform="matrix(1.00, 0.00, -0.00, -1.00, 158.9, 217.4)">v</text><text xml:space="preserve" font-family="Helvetica-Light,Helvetica" font-size="30.4" fill="#FEFFFF" transform="matrix(1.00, 0.00, -0.00, -1.00, 174.1, 217.4)">e</text><text xml:space="preserve" font-family="Helvetica-Light,Helvetica" font-size="30.4" fill="#FEFFFF" transform="matrix(1.00, 0.00, -0.00, -1.00, 191.0, 217.4)">n</text><text xml:space="preserve" font-family="Helvetica-Light,Helvetica" font-size="30.4" fill="#FEFFFF" transform="matrix(1.00, 0.00, -0.00, -1.00, 207.9, 217.4)">t</text><text xml:space="preserve" font-family="Helvetica-Light,Helvetica" font-size="30.4" fill="#FEFFFF" transform="matrix(1.00, 0.00, -0.00, -1.00, 216.4, 217.4)">-</text><text xml:space="preserve" font-family="Helvetica-Light,Helvetica" font-size="30.4" fill="#FEFFFF" transform="matrix(1.00, 0.00, -0.00, -1.00, 226.5, 217.4)">&gt;</text><text xml:space="preserve" font-family="Helvetica-Light,Helvetica" font-size="30.4" fill="#FEFFFF" transform="matrix(1.00, 0.00, -0.00, -1.00, 246.5, 217.4)">S</text><text xml:space="preserve" font-family="Helvetica-Light,Helvetica" font-size="30.4" fill="#FEFFFF" transform="matrix(1.00, 0.00, -0.00, -1.00, 265.1, 217.4)">e</text><text xml:space="preserve" font-family="Helvetica-Light,Helvetica" font-size="30.4" fill="#FEFFFF" transform="matrix(1.00, 0.00, -0.00, -1.00, 282.0, 217.4)">t</text><text xml:space="preserve" font-family="Helvetica-Light,Helvetica" font-size="30.4" fill="#FEFFFF" transform="matrix(1.00, 0.00, -0.00, -1.00, 290.5, 217.4)">T</text><text xml:space="preserve" font-family="Helvetica-Light,Helvetica" font-size="30.4" fill="#FEFFFF" transform="matrix(1.00, 0.00, -0.00, -1.00, 304.6, 217.4)">r</text><text xml:space="preserve" font-family="Helvetica-Light,Helvetica" font-size="30.4" fill="#FEFFFF" transform="matrix(1.00, 0.00, -0.00, -1.00, 314.7, 217.4)">u</text><text xml:space="preserve" font-family="Helvetica-Light,Helvetica" font-size="30.4" fill="#FEFFFF" transform="matrix(1.00, 0.00, -0.00, -1.00, 331.6, 217.4)">s</text><text xml:space="preserve" font-family="Helvetica-Light,Helvetica" font-size="30.4" fill="#FEFFFF" transform="matrix(1.00, 0.00, -0.00, -1.00, 346.8, 217.4)">t</text><text xml:space="preserve" font-family="Helvetica-Light,Helvetica" font-size="30.4" fill="#FEFFFF" transform="matrix(1.00, 0.00, -0.00, -1.00, 355.3, 217.4)">e</text><text xml:space="preserve" font-family="Helvetica-Light,Helvetica" font-size="30.4" fill="#FEFFFF" transform="matrix(1.00, 0.00, -0.00, -1.00, 372.2, 217.4)">d</text><text xml:space="preserve" font-family="Helvetica-Light,Helvetica" font-size="30.4" fill="#FEFFFF" transform="matrix(1.00, 0.00, -0.00, -1.00, 390.7, 217.4)">(</text><text xml:space="preserve" font-family="Helvetica-Light,Helvetica" font-size="30.4" fill="#FEFFFF" transform="matrix(1.00, 0.00, -0.00, -1.00, 400.9, 217.4)">t</text><text xml:space="preserve" font-family="Helvetica-Light,Helvetica" font-size="30.4" fill="#FEFFFF" transform="matrix(1.00, 0.00, -0.00, -1.00, 409.3, 217.4)">r</text><text xml:space="preserve" font-family="Helvetica-Light,Helvetica" font-size="30.4" fill="#FEFFFF" transform="matrix(1.00, 0.00, -0.00, -1.00, 419.4, 217.4)">u</text><text xml:space="preserve" font-family="Helvetica-Light,Helvetica" font-size="30.4" fill="#FEFFFF" transform="matrix(1.00, 0.00, -0.00, -1.00, 436.3, 217.4)">e</text><text xml:space="preserve" font-family="Helvetica-Light,Helvetica" font-size="30.4" fill="#FEFFFF" transform="matrix(1.00, 0.00, -0.00, -1.00, 453.2, 217.4)">)</text><text xml:space="preserve" font-family="Helvetica-Light,Helvetica" font-size="30.4" fill="#FEFFFF" transform="matrix(1.00, 0.00, -0.00, -1.00, 463.4, 217.4)">;</text><text xml:space="preserve" font-family="Helvetica-Light,Helvetica" font-size="30.4" fill="#FEFFFF" transform="matrix(1.00, 0.00, -0.00, -1.00, 471.8, 217.4)"> </text><text xml:space="preserve" font-family="Helvetica-Light,Helvetica" font-size="22.8" fill="#FEFFFF" transform="matrix(1.00, 0.00, -0.00, -1.00, 114.0, 150.0)">•</text><text xml:space="preserve" font-family="Helvetica-Light,Helvetica" font-size="30.4" fill="#FEFFFF" transform="matrix(1.00, 0.00, -0.00, -1.00, 142.0, 147.8)">e</text><text xml:space="preserve" font-family="Helvetica-Light,Helvetica" font-size="30.4" fill="#FEFFFF" transform="matrix(1.00, 0.00, -0.00, -1.00, 158.9, 147.8)">v</text><text xml:space="preserve" font-family="Helvetica-Light,Helvetica" font-size="30.4" fill="#FEFFFF" transform="matrix(1.00, 0.00, -0.00, -1.00, 174.1, 147.8)">e</text><text xml:space="preserve" font-family="Helvetica-Light,Helvetica" font-size="30.4" fill="#FEFFFF" transform="matrix(1.00, 0.00, -0.00, -1.00, 191.0, 147.8)">n</text><text xml:space="preserve" font-family="Helvetica-Light,Helvetica" font-size="30.4" fill="#FEFFFF" transform="matrix(1.00, 0.00, -0.00, -1.00, 207.9, 147.8)">t</text><text xml:space="preserve" font-family="Helvetica-Light,Helvetica" font-size="30.4" fill="#FEFFFF" transform="matrix(1.00, 0.00, -0.00, -1.00, 216.4, 147.8)">-</text><text xml:space="preserve" font-family="Helvetica-Light,Helvetica" font-size="30.4" fill="#FEFFFF" transform="matrix(1.00, 0.00, -0.00, -1.00, 226.5, 147.8)">&gt;</text><text xml:space="preserve" font-family="Helvetica-Light,Helvetica" font-size="30.4" fill="#FEFFFF" transform="matrix(1.00, 0.00, -0.00, -1.00, 246.5, 147.8)">G</text><text xml:space="preserve" font-family="Helvetica-Light,Helvetica" font-size="30.4" fill="#FEFFFF" transform="matrix(1.00, 0.00, -0.00, -1.00, 270.2, 147.8)">e</text><text xml:space="preserve" font-family="Helvetica-Light,Helvetica" font-size="30.4" fill="#FEFFFF" transform="matrix(1.00, 0.00, -0.00, -1.00, 287.1, 147.8)">t</text><text xml:space="preserve" font-family="Helvetica-Light,Helvetica" font-size="30.4" fill="#FEFFFF" transform="matrix(1.00, 0.00, -0.00, -1.00, 295.6, 147.8)">I</text><text xml:space="preserve" font-family="Helvetica-Light,Helvetica" font-size="30.4" fill="#FEFFFF" transform="matrix(1.00, 0.00, -0.00, -1.00, 304.0, 147.8)">n</text><text xml:space="preserve" font-family="Helvetica-Light,Helvetica" font-size="30.4" fill="#FEFFFF" transform="matrix(1.00, 0.00, -0.00, -1.00, 320.9, 147.8)">t</text><text xml:space="preserve" font-family="Helvetica-Light,Helvetica" font-size="30.4" fill="#FEFFFF" transform="matrix(1.00, 0.00, -0.00, -1.00, 329.4, 147.8)">e</text><text xml:space="preserve" font-family="Helvetica-Light,Helvetica" font-size="30.4" fill="#FEFFFF" transform="matrix(1.00, 0.00, -0.00, -1.00, 346.3, 147.8)">r</text><text xml:space="preserve" font-family="Helvetica-Light,Helvetica" font-size="30.4" fill="#FEFFFF" transform="matrix(1.00, 0.00, -0.00, -1.00, 356.9, 147.8)">n</text><text xml:space="preserve" font-family="Helvetica-Light,Helvetica" font-size="30.4" fill="#FEFFFF" transform="matrix(1.00, 0.00, -0.00, -1.00, 373.8, 147.8)">a</text><text xml:space="preserve" font-family="Helvetica-Light,Helvetica" font-size="30.4" fill="#FEFFFF" transform="matrix(1.00, 0.00, -0.00, -1.00, 390.7, 147.8)">l</text><text xml:space="preserve" font-family="Helvetica-Light,Helvetica" font-size="30.4" fill="#FEFFFF" transform="matrix(1.00, 0.00, -0.00, -1.00, 397.5, 147.8)">N</text><text xml:space="preserve" font-family="Helvetica-Light,Helvetica" font-size="30.4" fill="#FEFFFF" transform="matrix(1.00, 0.00, -0.00, -1.00, 419.4, 147.8)">S</text><text xml:space="preserve" font-family="Helvetica-Light,Helvetica" font-size="30.4" fill="#FEFFFF" transform="matrix(1.00, 0.00, -0.00, -1.00, 438.0, 147.8)">E</text><text xml:space="preserve" font-family="Helvetica-Light,Helvetica" font-size="30.4" fill="#FEFFFF" transform="matrix(1.00, 0.00, -0.00, -1.00, 456.6, 147.8)">v</text><text xml:space="preserve" font-family="Helvetica-Light,Helvetica" font-size="30.4" fill="#FEFFFF" transform="matrix(1.00, 0.00, -0.00, -1.00, 471.8, 147.8)">e</text><text xml:space="preserve" font-family="Helvetica-Light,Helvetica" font-size="30.4" fill="#FEFFFF" transform="matrix(1.00, 0.00, -0.00, -1.00, 488.7, 147.8)">n</text><text xml:space="preserve" font-family="Helvetica-Light,Helvetica" font-size="30.4" fill="#FEFFFF" transform="matrix(1.00, 0.00, -0.00, -1.00, 505.6, 147.8)">t</text><text xml:space="preserve" font-family="Helvetica-Light,Helvetica" font-size="30.4" fill="#FEFFFF" transform="matrix(1.00, 0.00, -0.00, -1.00, 514.0, 147.8)">(</text><text xml:space="preserve" font-family="Helvetica-Light,Helvetica" font-size="30.4" fill="#FEFFFF" transform="matrix(1.00, 0.00, -0.00, -1.00, 524.2, 147.8)">)</text><text xml:space="preserve" font-family="Helvetica-Light,Helvetica" font-size="30.4" fill="#FEFFFF" transform="matrix(1.00, 0.00, -0.00, -1.00, 534.3, 147.8)">-</text><text xml:space="preserve" font-family="Helvetica-Light,Helvetica" font-size="30.4" fill="#FEFFFF" transform="matrix(1.00, 0.00, -0.00, -1.00, 142.0, 111.8)">&gt;</text><text xml:space="preserve" font-family="Helvetica-Light,Helvetica" font-size="30.4" fill="#FEFFFF" transform="matrix(1.00, 0.00, -0.00, -1.00, 162.1, 111.8)">m</text><text xml:space="preserve" font-family="Helvetica-Light,Helvetica" font-size="30.4" fill="#FEFFFF" transform="matrix(1.00, 0.00, -0.00, -1.00, 187.4, 111.8)">F</text><text xml:space="preserve" font-family="Helvetica-Light,Helvetica" font-size="30.4" fill="#FEFFFF" transform="matrix(1.00, 0.00, -0.00, -1.00, 204.3, 111.8)">l</text><text xml:space="preserve" font-family="Helvetica-Light,Helvetica" font-size="30.4" fill="#FEFFFF" transform="matrix(1.00, 0.00, -0.00, -1.00, 211.0, 111.8)">a</text><text xml:space="preserve" font-family="Helvetica-Light,Helvetica" font-size="30.4" fill="#FEFFFF" transform="matrix(1.00, 0.00, -0.00, -1.00, 227.9, 111.8)">g</text><text xml:space="preserve" font-family="Helvetica-Light,Helvetica" font-size="30.4" fill="#FEFFFF" transform="matrix(1.00, 0.00, -0.00, -1.00, 246.5, 111.8)">s</text><text xml:space="preserve" font-family="Helvetica-Light,Helvetica" font-size="30.4" fill="#FEFFFF" transform="matrix(1.00, 0.00, -0.00, -1.00, 261.7, 111.8)">.</text><text xml:space="preserve" font-family="Helvetica-Light,Helvetica" font-size="30.4" fill="#FEFFFF" transform="matrix(1.00, 0.00, -0.00, -1.00, 270.2, 111.8)">m</text><text xml:space="preserve" font-family="Helvetica-Light,Helvetica" font-size="30.4" fill="#FEFFFF" transform="matrix(1.00, 0.00, -0.00, -1.00, 295.5, 111.8)">O</text><text xml:space="preserve" font-family="Helvetica-Light,Helvetica" font-size="30.4" fill="#FEFFFF" transform="matrix(1.00, 0.00, -0.00, -1.00, 319.1, 111.8)">n</text><text xml:space="preserve" font-family="Helvetica-Light,Helvetica" font-size="30.4" fill="#FEFFFF" transform="matrix(1.00, 0.00, -0.00, -1.00, 336.0, 111.8)">l</text><text xml:space="preserve" font-family="Helvetica-Light,Helvetica" font-size="30.4" fill="#FEFFFF" transform="matrix(1.00, 0.00, -0.00, -1.00, 342.8, 111.8)">y</text><text xml:space="preserve" font-family="Helvetica-Light,Helvetica" font-size="30.4" fill="#FEFFFF" transform="matrix(1.00, 0.00, -0.00, -1.00, 358.0, 111.8)">C</text><text xml:space="preserve" font-family="Helvetica-Light,Helvetica" font-size="30.4" fill="#FEFFFF" transform="matrix(1.00, 0.00, -0.00, -1.00, 379.9, 111.8)">h</text><text xml:space="preserve" font-family="Helvetica-Light,Helvetica" font-size="30.4" fill="#FEFFFF" transform="matrix(1.00, 0.00, -0.00, -1.00, 396.8, 111.8)">r</text><text xml:space="preserve" font-family="Helvetica-Light,Helvetica" font-size="30.4" fill="#FEFFFF" transform="matrix(1.00, 0.00, -0.00, -1.00, 406.4, 111.8)">o</text><text xml:space="preserve" font-family="Helvetica-Light,Helvetica" font-size="30.4" fill="#FEFFFF" transform="matrix(1.00, 0.00, -0.00, -1.00, 423.3, 111.8)">m</text><text xml:space="preserve" font-family="Helvetica-Light,Helvetica" font-size="30.4" fill="#FEFFFF" transform="matrix(1.00, 0.00, -0.00, -1.00, 448.6, 111.8)">e</text><text xml:space="preserve" font-family="Helvetica-Light,Helvetica" font-size="30.4" fill="#FEFFFF" transform="matrix(1.00, 0.00, -0.00, -1.00, 465.5, 111.8)">D</text><text xml:space="preserve" font-family="Helvetica-Light,Helvetica" font-size="30.4" fill="#FEFFFF" transform="matrix(1.00, 0.00, -0.00, -1.00, 487.5, 111.8)">i</text><text xml:space="preserve" font-family="Helvetica-Light,Helvetica" font-size="30.4" fill="#FEFFFF" transform="matrix(1.00, 0.00, -0.00, -1.00, 494.2, 111.8)">s</text><text xml:space="preserve" font-family="Helvetica-Light,Helvetica" font-size="30.4" fill="#FEFFFF" transform="matrix(1.00, 0.00, -0.00, -1.00, 509.4, 111.8)">p</text><text xml:space="preserve" font-family="Helvetica-Light,Helvetica" font-size="30.4" fill="#FEFFFF" transform="matrix(1.00, 0.00, -0.00, -1.00, 528.0, 111.8)">a</text><text xml:space="preserve" font-family="Helvetica-Light,Helvetica" font-size="30.4" fill="#FEFFFF" transform="matrix(1.00, 0.00, -0.00, -1.00, 544.9, 111.8)">t</text><text xml:space="preserve" font-family="Helvetica-Light,Helvetica" font-size="30.4" fill="#FEFFFF" transform="matrix(1.00, 0.00, -0.00, -1.00, 553.4, 111.8)">c</text><text xml:space="preserve" font-family="Helvetica-Light,Helvetica" font-size="30.4" fill="#FEFFFF" transform="matrix(1.00, 0.00, -0.00, -1.00, 570.3, 111.8)">h</text><text xml:space="preserve" font-family="Helvetica-Light,Helvetica" font-size="30.4" fill="#FEFFFF" transform="matrix(1.00, 0.00, -0.00, -1.00, 587.2, 111.8)"> </text><text xml:space="preserve" font-family="Helvetica-Light,Helvetica" font-size="30.4" fill="#FEFFFF" transform="matrix(1.00, 0.00, -0.00, -1.00, 595.6, 111.8)">=</text><text xml:space="preserve" font-family="Helvetica-Light,Helvetica" font-size="30.4" fill="#FEFFFF" transform="matrix(1.00, 0.00, -0.00, -1.00, 615.7, 111.8)"> </text><text xml:space="preserve" font-family="Helvetica-Light,Helvetica" font-size="30.4" fill="#FEFFFF" transform="matrix(1.00, 0.00, -0.00, -1.00, 624.1, 111.8)">t</text><text xml:space="preserve" font-family="Helvetica-Light,Helvetica" font-size="30.4" fill="#FEFFFF" transform="matrix(1.00, 0.00, -0.00, -1.00, 632.6, 111.8)">r</text><text xml:space="preserve" font-family="Helvetica-Light,Helvetica" font-size="30.4" fill="#FEFFFF" transform="matrix(1.00, 0.00, -0.00, -1.00, 642.7, 111.8)">u</text><text xml:space="preserve" font-family="Helvetica-Light,Helvetica" font-size="30.4" fill="#FEFFFF" transform="matrix(1.00, 0.00, -0.00, -1.00, 659.6, 111.8)">e</text><text xml:space="preserve" font-family="Helvetica-Light,Helvetica" font-size="30.4" fill="#FEFFFF" transform="matrix(1.00, 0.00, -0.00, -1.00, 676.5, 111.8)">;</text></g></svg>