<?xml version="1.0" encoding="UTF-8" standalone="no"?><svg xmlns="http://www.w3.org/2000/svg" xmlns:xlink="http://www.w3.org/1999/xlink" clip-rule="evenodd" stroke-miterlimit="10" viewBox="0 0 1024 768"><desc>SVG generated by Keynote</desc><defs></defs><g transform="matrix(1.00, 0.00, -0.00, -1.00, 0.0, 768.0)"><path d="M 0.0 768.0 L 1024.0 768.0 L 1024.0 0.0 L 0.0 0.0 Z M 0.0 768.0 " fill="#000000"></path><text xml:space="preserve" font-family="Helvetica-Light,Helvetica" font-size="16.8" fill="#FEFFFF" transform="matrix(1.00, 0.00, -0.00, -1.00, 79.0, 538.4)">•</text><text xml:space="preserve" font-family="Helvetica-Light,Helvetica" font-size="22.4" fill="#FEFFFF" transform="matrix(1.00, 0.00, -0.00, -1.00, 99.7, 536.7)">d</text><text xml:space="preserve" font-family="Helvetica-Light,Helvetica" font-size="22.4" fill="#FEFFFF" transform="matrix(1.00, 0.00, -0.00, -1.00, 113.3, 536.7)">o</text><text xml:space="preserve" font-family="Helvetica-Light,Helvetica" font-size="22.4" fill="#FEFFFF" transform="matrix(1.00, 0.00, -0.00, -1.00, 125.8, 536.7)">m</text><text xml:space="preserve" font-family="Helvetica-Light,Helvetica" font-size="22.4" fill="#FEFFFF" transform="matrix(1.00, 0.00, -0.00, -1.00, 144.5, 536.7)">:</text><text xml:space="preserve" font-family="Helvetica-Light,Helvetica" font-size="22.4" fill="#FEFFFF" transform="matrix(1.00, 0.00, -0.00, -1.00, 150.7, 536.7)">:</text><text xml:space="preserve" font-family="Helvetica-Light,Helvetica" font-size="22.4" fill="#FEFFFF" transform="matrix(1.00, 0.00, -0.00, -1.00, 157.0, 536.7)">S</text><text xml:space="preserve" font-family="Helvetica-Light,Helvetica" font-size="22.4" fill="#FEFFFF" transform="matrix(1.00, 0.00, -0.00, -1.00, 170.7, 536.7)">e</text><text xml:space="preserve" font-family="Helvetica-Light,Helvetica" font-size="22.4" fill="#FEFFFF" transform="matrix(1.00, 0.00, -0.00, -1.00, 183.1, 536.7)">l</text><text xml:space="preserve" font-family="Helvetica-Light,Helvetica" font-size="22.4" fill="#FEFFFF" transform="matrix(1.00, 0.00, -0.00, -1.00, 188.1, 536.7)">e</text><text xml:space="preserve" font-family="Helvetica-Light,Helvetica" font-size="22.4" fill="#FEFFFF" transform="matrix(1.00, 0.00, -0.00, -1.00, 200.6, 536.7)">c</text><text xml:space="preserve" font-family="Helvetica-Light,Helvetica" font-size="22.4" fill="#FEFFFF" transform="matrix(1.00, 0.00, -0.00, -1.00, 213.0, 536.7)">t</text><text xml:space="preserve" font-family="Helvetica-Light,Helvetica" font-size="22.4" fill="#FEFFFF" transform="matrix(1.00, 0.00, -0.00, -1.00, 219.3, 536.7)">i</text><text xml:space="preserve" font-family="Helvetica-Light,Helvetica" font-size="22.4" fill="#FEFFFF" transform="matrix(1.00, 0.00, -0.00, -1.00, 224.2, 536.7)">o</text><text xml:space="preserve" font-family="Helvetica-Light,Helvetica" font-size="22.4" fill="#FEFFFF" transform="matrix(1.00, 0.00, -0.00, -1.00, 236.7, 536.7)">n</text><text xml:space="preserve" font-family="Helvetica-Light,Helvetica" font-size="22.4" fill="#FEFFFF" transform="matrix(1.00, 0.00, -0.00, -1.00, 249.2, 536.7)"> </text><text xml:space="preserve" font-family="Helvetica-Light,Helvetica" font-size="16.8" fill="#FEFFFF" transform="matrix(1.00, 0.00, -0.00, -1.00, 79.0, 487.6)">•</text><text xml:space="preserve" font-family="Helvetica-Light,Helvetica" font-size="22.4" fill="#FEFFFF" transform="matrix(1.00, 0.00, -0.00, -1.00, 99.7, 485.9)">F</text><text xml:space="preserve" font-family="Helvetica-Light,Helvetica" font-size="22.4" fill="#FEFFFF" transform="matrix(1.00, 0.00, -0.00, -1.00, 112.1, 485.9)">r</text><text xml:space="preserve" font-family="Helvetica-Light,Helvetica" font-size="22.4" fill="#FEFFFF" transform="matrix(1.00, 0.00, -0.00, -1.00, 119.6, 485.9)">a</text><text xml:space="preserve" font-family="Helvetica-Light,Helvetica" font-size="22.4" fill="#FEFFFF" transform="matrix(1.00, 0.00, -0.00, -1.00, 132.0, 485.9)">m</text><text xml:space="preserve" font-family="Helvetica-Light,Helvetica" font-size="22.4" fill="#FEFFFF" transform="matrix(1.00, 0.00, -0.00, -1.00, 150.7, 485.9)">e</text><text xml:space="preserve" font-family="Helvetica-Light,Helvetica" font-size="22.4" fill="#FEFFFF" transform="matrix(1.00, 0.00, -0.00, -1.00, 163.2, 485.9)">S</text><text xml:space="preserve" font-family="Helvetica-Light,Helvetica" font-size="22.4" fill="#FEFFFF" transform="matrix(1.00, 0.00, -0.00, -1.00, 176.9, 485.9)">e</text><text xml:space="preserve" font-family="Helvetica-Light,Helvetica" font-size="22.4" fill="#FEFFFF" transform="matrix(1.00, 0.00, -0.00, -1.00, 189.4, 485.9)">l</text><text xml:space="preserve" font-family="Helvetica-Light,Helvetica" font-size="22.4" fill="#FEFFFF" transform="matrix(1.00, 0.00, -0.00, -1.00, 194.3, 485.9)">e</text><text xml:space="preserve" font-family="Helvetica-Light,Helvetica" font-size="22.4" fill="#FEFFFF" transform="matrix(1.00, 0.00, -0.00, -1.00, 206.8, 485.9)">c</text><text xml:space="preserve" font-family="Helvetica-Light,Helvetica" font-size="22.4" fill="#FEFFFF" transform="matrix(1.00, 0.00, -0.00, -1.00, 219.3, 485.9)">t</text><text xml:space="preserve" font-family="Helvetica-Light,Helvetica" font-size="22.4" fill="#FEFFFF" transform="matrix(1.00, 0.00, -0.00, -1.00, 225.5, 485.9)">i</text><text xml:space="preserve" font-family="Helvetica-Light,Helvetica" font-size="22.4" fill="#FEFFFF" transform="matrix(1.00, 0.00, -0.00, -1.00, 230.5, 485.9)">o</text><text xml:space="preserve" font-family="Helvetica-Light,Helvetica" font-size="22.4" fill="#FEFFFF" transform="matrix(1.00, 0.00, -0.00, -1.00, 242.9, 485.9)">n</text><text xml:space="preserve" font-family="Helvetica-Light,Helvetica" font-size="22.4" fill="#FEFFFF" transform="matrix(1.00, 0.00, -0.00, -1.00, 255.4, 485.9)"> </text><text xml:space="preserve" font-family="Helvetica-Light,Helvetica" font-size="16.8" fill="#FEFFFF" transform="matrix(1.00, 0.00, -0.00, -1.00, 79.0, 436.8)">•</text><text xml:space="preserve" font-family="Helvetica-Light,Helvetica" font-size="22.4" fill="#FEFFFF" transform="matrix(1.00, 0.00, -0.00, -1.00, 99.7, 435.1)">n</text><text xml:space="preserve" font-family="Helvetica-Light,Helvetica" font-size="22.4" fill="#FEFFFF" transform="matrix(1.00, 0.00, -0.00, -1.00, 112.1, 435.1)">s</text><text xml:space="preserve" font-family="Helvetica-Light,Helvetica" font-size="22.4" fill="#FEFFFF" transform="matrix(1.00, 0.00, -0.00, -1.00, 123.3, 435.1)">R</text><text xml:space="preserve" font-family="Helvetica-Light,Helvetica" font-size="22.4" fill="#FEFFFF" transform="matrix(1.00, 0.00, -0.00, -1.00, 138.3, 435.1)">a</text><text xml:space="preserve" font-family="Helvetica-Light,Helvetica" font-size="22.4" fill="#FEFFFF" transform="matrix(1.00, 0.00, -0.00, -1.00, 150.7, 435.1)">n</text><text xml:space="preserve" font-family="Helvetica-Light,Helvetica" font-size="22.4" fill="#FEFFFF" transform="matrix(1.00, 0.00, -0.00, -1.00, 163.2, 435.1)">g</text><text xml:space="preserve" font-family="Helvetica-Light,Helvetica" font-size="22.4" fill="#FEFFFF" transform="matrix(1.00, 0.00, -0.00, -1.00, 176.9, 435.1)">e</text><text xml:space="preserve" font-family="Helvetica-Light,Helvetica" font-size="22.4" fill="#FEFFFF" transform="matrix(1.00, 0.00, -0.00, -1.00, 189.4, 435.1)"> </text><text xml:space="preserve" font-family="Helvetica-Light,Helvetica" font-size="22.4" fill="#FEFFFF" transform="matrix(1.00, 0.00, -0.00, -1.00, 217.0, 435.1)"> </text><text xml:space="preserve" font-family="Helvetica-Light,Helvetica" font-size="16.8" fill="#FEFFFF" transform="matrix(1.00, 0.00, -0.00, -1.00, 114.0, 386.0)">•</text><text xml:space="preserve" font-family="Helvetica-Light,Helvetica" font-size="22.4" fill="#FEFFFF" transform="matrix(1.00, 0.00, -0.00, -1.00, 134.7, 384.3)">S</text><text xml:space="preserve" font-family="Helvetica-Light,Helvetica" font-size="22.4" fill="#FEFFFF" transform="matrix(1.00, 0.00, -0.00, -1.00, 148.3, 384.3)">t</text><text xml:space="preserve" font-family="Helvetica-Light,Helvetica" font-size="22.4" fill="#FEFFFF" transform="matrix(1.00, 0.00, -0.00, -1.00, 154.6, 384.3)">a</text><text xml:space="preserve" font-family="Helvetica-Light,Helvetica" font-size="22.4" fill="#FEFFFF" transform="matrix(1.00, 0.00, -0.00, -1.00, 167.0, 384.3)">r</text><text xml:space="preserve" font-family="Helvetica-Light,Helvetica" font-size="22.4" fill="#FEFFFF" transform="matrix(1.00, 0.00, -0.00, -1.00, 174.9, 384.3)">t</text><text xml:space="preserve" font-family="Helvetica-Light,Helvetica" font-size="22.4" fill="#FEFFFF" transform="matrix(1.00, 0.00, -0.00, -1.00, 181.1, 384.3)">P</text><text xml:space="preserve" font-family="Helvetica-Light,Helvetica" font-size="22.4" fill="#FEFFFF" transform="matrix(1.00, 0.00, -0.00, -1.00, 194.8, 384.3)">a</text><text xml:space="preserve" font-family="Helvetica-Light,Helvetica" font-size="22.4" fill="#FEFFFF" transform="matrix(1.00, 0.00, -0.00, -1.00, 207.3, 384.3)">r</text><text xml:space="preserve" font-family="Helvetica-Light,Helvetica" font-size="22.4" fill="#FEFFFF" transform="matrix(1.00, 0.00, -0.00, -1.00, 214.4, 384.3)">e</text><text xml:space="preserve" font-family="Helvetica-Light,Helvetica" font-size="22.4" fill="#FEFFFF" transform="matrix(1.00, 0.00, -0.00, -1.00, 226.8, 384.3)">n</text><text xml:space="preserve" font-family="Helvetica-Light,Helvetica" font-size="22.4" fill="#FEFFFF" transform="matrix(1.00, 0.00, -0.00, -1.00, 239.3, 384.3)">t</text><text xml:space="preserve" font-family="Helvetica-Light,Helvetica" font-size="22.4" fill="#FEFFFF" transform="matrix(1.00, 0.00, -0.00, -1.00, 245.5, 384.3)"> </text><text xml:space="preserve" font-family="Helvetica-Light,Helvetica" font-size="16.8" fill="#FEFFFF" transform="matrix(1.00, 0.00, -0.00, -1.00, 114.0, 335.2)">•</text><text xml:space="preserve" font-family="Helvetica-Light,Helvetica" font-size="22.4" fill="#FEFFFF" transform="matrix(1.00, 0.00, -0.00, -1.00, 134.7, 333.5)">E</text><text xml:space="preserve" font-family="Helvetica-Light,Helvetica" font-size="22.4" fill="#FEFFFF" transform="matrix(1.00, 0.00, -0.00, -1.00, 148.3, 333.5)">n</text><text xml:space="preserve" font-family="Helvetica-Light,Helvetica" font-size="22.4" fill="#FEFFFF" transform="matrix(1.00, 0.00, -0.00, -1.00, 160.8, 333.5)">d</text><text xml:space="preserve" font-family="Helvetica-Light,Helvetica" font-size="22.4" fill="#FEFFFF" transform="matrix(1.00, 0.00, -0.00, -1.00, 174.5, 333.5)">P</text><text xml:space="preserve" font-family="Helvetica-Light,Helvetica" font-size="22.4" fill="#FEFFFF" transform="matrix(1.00, 0.00, -0.00, -1.00, 188.2, 333.5)">a</text><text xml:space="preserve" font-family="Helvetica-Light,Helvetica" font-size="22.4" fill="#FEFFFF" transform="matrix(1.00, 0.00, -0.00, -1.00, 200.7, 333.5)">r</text><text xml:space="preserve" font-family="Helvetica-Light,Helvetica" font-size="22.4" fill="#FEFFFF" transform="matrix(1.00, 0.00, -0.00, -1.00, 207.7, 333.5)">e</text><text xml:space="preserve" font-family="Helvetica-Light,Helvetica" font-size="22.4" fill="#FEFFFF" transform="matrix(1.00, 0.00, -0.00, -1.00, 220.2, 333.5)">n</text><text xml:space="preserve" font-family="Helvetica-Light,Helvetica" font-size="22.4" fill="#FEFFFF" transform="matrix(1.00, 0.00, -0.00, -1.00, 232.7, 333.5)">t</text><text xml:space="preserve" font-family="Helvetica-Light,Helvetica" font-size="22.4" fill="#FEFFFF" transform="matrix(1.00, 0.00, -0.00, -1.00, 238.9, 333.5)"> </text><text xml:space="preserve" font-family="Helvetica-Light,Helvetica" font-size="16.8" fill="#FEFFFF" transform="matrix(1.00, 0.00, -0.00, -1.00, 114.0, 284.5)">•</text><text xml:space="preserve" font-family="Helvetica-Light,Helvetica" font-size="22.4" fill="#FEFFFF" transform="matrix(1.00, 0.00, -0.00, -1.00, 134.7, 282.8)">S</text><text xml:space="preserve" font-family="Helvetica-Light,Helvetica" font-size="22.4" fill="#FEFFFF" transform="matrix(1.00, 0.00, -0.00, -1.00, 148.3, 282.8)">t</text><text xml:space="preserve" font-family="Helvetica-Light,Helvetica" font-size="22.4" fill="#FEFFFF" transform="matrix(1.00, 0.00, -0.00, -1.00, 154.6, 282.8)">a</text><text xml:space="preserve" font-family="Helvetica-Light,Helvetica" font-size="22.4" fill="#FEFFFF" transform="matrix(1.00, 0.00, -0.00, -1.00, 167.0, 282.8)">r</text><text xml:space="preserve" font-family="Helvetica-Light,Helvetica" font-size="22.4" fill="#FEFFFF" transform="matrix(1.00, 0.00, -0.00, -1.00, 174.9, 282.8)">t</text><text xml:space="preserve" font-family="Helvetica-Light,Helvetica" font-size="22.4" fill="#FEFFFF" transform="matrix(1.00, 0.00, -0.00, -1.00, 181.1, 282.8)">O</text><text xml:space="preserve" font-family="Helvetica-Light,Helvetica" font-size="22.4" fill="#FEFFFF" transform="matrix(1.00, 0.00, -0.00, -1.00, 198.6, 282.8)">f</text><text xml:space="preserve" font-family="Helvetica-Light,Helvetica" font-size="22.4" fill="#FEFFFF" transform="matrix(1.00, 0.00, -0.00, -1.00, 204.4, 282.8)">f</text><text xml:space="preserve" font-family="Helvetica-Light,Helvetica" font-size="22.4" fill="#FEFFFF" transform="matrix(1.00, 0.00, -0.00, -1.00, 210.7, 282.8)">s</text><text xml:space="preserve" font-family="Helvetica-Light,Helvetica" font-size="22.4" fill="#FEFFFF" transform="matrix(1.00, 0.00, -0.00, -1.00, 221.9, 282.8)">e</text><text xml:space="preserve" font-family="Helvetica-Light,Helvetica" font-size="22.4" fill="#FEFFFF" transform="matrix(1.00, 0.00, -0.00, -1.00, 234.3, 282.8)">t</text><text xml:space="preserve" font-family="Helvetica-Light,Helvetica" font-size="22.4" fill="#FEFFFF" transform="matrix(1.00, 0.00, -0.00, -1.00, 240.6, 282.8)"> </text><text xml:space="preserve" font-family="Helvetica-Light,Helvetica" font-size="16.8" fill="#FEFFFF" transform="matrix(1.00, 0.00, -0.00, -1.00, 114.0, 233.7)">•</text><text xml:space="preserve" font-family="Helvetica-Light,Helvetica" font-size="22.4" fill="#FEFFFF" transform="matrix(1.00, 0.00, -0.00, -1.00, 134.7, 232.0)">E</text><text xml:space="preserve" font-family="Helvetica-Light,Helvetica" font-size="22.4" fill="#FEFFFF" transform="matrix(1.00, 0.00, -0.00, -1.00, 148.3, 232.0)">n</text><text xml:space="preserve" font-family="Helvetica-Light,Helvetica" font-size="22.4" fill="#FEFFFF" transform="matrix(1.00, 0.00, -0.00, -1.00, 160.8, 232.0)">d</text><text xml:space="preserve" font-family="Helvetica-Light,Helvetica" font-size="22.4" fill="#FEFFFF" transform="matrix(1.00, 0.00, -0.00, -1.00, 174.5, 232.0)">O</text><text xml:space="preserve" font-family="Helvetica-Light,Helvetica" font-size="22.4" fill="#FEFFFF" transform="matrix(1.00, 0.00, -0.00, -1.00, 192.0, 232.0)">f</text><text xml:space="preserve" font-family="Helvetica-Light,Helvetica" font-size="22.4" fill="#FEFFFF" transform="matrix(1.00, 0.00, -0.00, -1.00, 197.8, 232.0)">f</text><text xml:space="preserve" font-family="Helvetica-Light,Helvetica" font-size="22.4" fill="#FEFFFF" transform="matrix(1.00, 0.00, -0.00, -1.00, 204.0, 232.0)">s</text><text xml:space="preserve" font-family="Helvetica-Light,Helvetica" font-size="22.4" fill="#FEFFFF" transform="matrix(1.00, 0.00, -0.00, -1.00, 215.2, 232.0)">e</text><text xml:space="preserve" font-family="Helvetica-Light,Helvetica" font-size="22.4" fill="#FEFFFF" transform="matrix(1.00, 0.00, -0.00, -1.00, 227.7, 232.0)">t</text><text xml:space="preserve" font-family="Helvetica-Light,Helvetica" font-size="22.4" fill="#FEFFFF" transform="matrix(1.00, 0.00, -0.00, -1.00, 233.9, 232.0)"> </text><text xml:space="preserve" font-family="Helvetica-Light,Helvetica" font-size="16.8" fill="#FEFFFF" transform="matrix(1.00, 0.00, -0.00, -1.00, 79.0, 182.9)">•</text><text xml:space="preserve" font-family="Helvetica-Light,Helvetica" font-size="22.4" fill="#FEFFFF" transform="matrix(1.00, 0.00, -0.00, -1.00, 99.7, 181.2)">-</text><text xml:space="preserve" font-family="Helvetica-Light,Helvetica" font-size="22.4" fill="#FEFFFF" transform="matrix(1.00, 0.00, -0.00, -1.00, 107.1, 181.2)">m</text><text xml:space="preserve" font-family="Helvetica-Light,Helvetica" font-size="22.4" fill="#FEFFFF" transform="matrix(1.00, 0.00, -0.00, -1.00, 125.8, 181.2)">o</text><text xml:space="preserve" font-family="Helvetica-Light,Helvetica" font-size="22.4" fill="#FEFFFF" transform="matrix(1.00, 0.00, -0.00, -1.00, 138.3, 181.2)">z</text><text xml:space="preserve" font-family="Helvetica-Light,Helvetica" font-size="22.4" fill="#FEFFFF" transform="matrix(1.00, 0.00, -0.00, -1.00, 149.5, 181.2)">-</text><text xml:space="preserve" font-family="Helvetica-Light,Helvetica" font-size="22.4" fill="#FEFFFF" transform="matrix(1.00, 0.00, -0.00, -1.00, 156.9, 181.2)">u</text><text xml:space="preserve" font-family="Helvetica-Light,Helvetica" font-size="22.4" fill="#FEFFFF" transform="matrix(1.00, 0.00, -0.00, -1.00, 169.4, 181.2)">s</text><text xml:space="preserve" font-family="Helvetica-Light,Helvetica" font-size="22.4" fill="#FEFFFF" transform="matrix(1.00, 0.00, -0.00, -1.00, 180.6, 181.2)">e</text><text xml:space="preserve" font-family="Helvetica-Light,Helvetica" font-size="22.4" fill="#FEFFFF" transform="matrix(1.00, 0.00, -0.00, -1.00, 193.1, 181.2)">r</text><text xml:space="preserve" font-family="Helvetica-Light,Helvetica" font-size="22.4" fill="#FEFFFF" transform="matrix(1.00, 0.00, -0.00, -1.00, 199.3, 181.2)">-</text><text xml:space="preserve" font-family="Helvetica-Light,Helvetica" font-size="22.4" fill="#FEFFFF" transform="matrix(1.00, 0.00, -0.00, -1.00, 206.8, 181.2)">s</text><text xml:space="preserve" font-family="Helvetica-Light,Helvetica" font-size="22.4" fill="#FEFFFF" transform="matrix(1.00, 0.00, -0.00, -1.00, 218.0, 181.2)">e</text><text xml:space="preserve" font-family="Helvetica-Light,Helvetica" font-size="22.4" fill="#FEFFFF" transform="matrix(1.00, 0.00, -0.00, -1.00, 230.4, 181.2)">l</text><text xml:space="preserve" font-family="Helvetica-Light,Helvetica" font-size="22.4" fill="#FEFFFF" transform="matrix(1.00, 0.00, -0.00, -1.00, 235.4, 181.2)">e</text><text xml:space="preserve" font-family="Helvetica-Light,Helvetica" font-size="22.4" fill="#FEFFFF" transform="matrix(1.00, 0.00, -0.00, -1.00, 247.9, 181.2)">c</text><text xml:space="preserve" font-family="Helvetica-Light,Helvetica" font-size="22.4" fill="#FEFFFF" transform="matrix(1.00, 0.00, -0.00, -1.00, 260.4, 181.2)">t</text><text xml:space="preserve" font-family="Helvetica-Light,Helvetica" font-size="22.4" fill="#FEFFFF" transform="matrix(1.00, 0.00, -0.00, -1.00, 266.6, 181.2)"> </text><text xml:space="preserve" font-family="Helvetica-Light,Helvetica" font-size="16.8" fill="#FEFFFF" transform="matrix(1.00, 0.00, -0.00, -1.00, 79.0, 132.1)">•</text><text xml:space="preserve" font-family="Helvetica-Light,Helvetica" font-size="22.4" fill="#FEFFFF" transform="matrix(1.00, 0.00, -0.00, -1.00, 99.7, 130.4)">S</text><text xml:space="preserve" font-family="Helvetica-Light,Helvetica" font-size="22.4" fill="#FEFFFF" transform="matrix(1.00, 0.00, -0.00, -1.00, 113.3, 130.4)">e</text><text xml:space="preserve" font-family="Helvetica-Light,Helvetica" font-size="22.4" fill="#FEFFFF" transform="matrix(1.00, 0.00, -0.00, -1.00, 125.8, 130.4)">l</text><text xml:space="preserve" font-family="Helvetica-Light,Helvetica" font-size="22.4" fill="#FEFFFF" transform="matrix(1.00, 0.00, -0.00, -1.00, 130.8, 130.4)">e</text><text xml:space="preserve" font-family="Helvetica-Light,Helvetica" font-size="22.4" fill="#FEFFFF" transform="matrix(1.00, 0.00, -0.00, -1.00, 143.3, 130.4)">c</text><text xml:space="preserve" font-family="Helvetica-Light,Helvetica" font-size="22.4" fill="#FEFFFF" transform="matrix(1.00, 0.00, -0.00, -1.00, 155.7, 130.4)">t</text><text xml:space="preserve" font-family="Helvetica-Light,Helvetica" font-size="22.4" fill="#FEFFFF" transform="matrix(1.00, 0.00, -0.00, -1.00, 162.0, 130.4)">i</text><text xml:space="preserve" font-family="Helvetica-Light,Helvetica" font-size="22.4" fill="#FEFFFF" transform="matrix(1.00, 0.00, -0.00, -1.00, 166.9, 130.4)">o</text><text xml:space="preserve" font-family="Helvetica-Light,Helvetica" font-size="22.4" fill="#FEFFFF" transform="matrix(1.00, 0.00, -0.00, -1.00, 179.4, 130.4)">n</text><text xml:space="preserve" font-family="Helvetica-Light,Helvetica" font-size="22.4" fill="#FEFFFF" transform="matrix(1.00, 0.00, -0.00, -1.00, 191.9, 130.4)"> </text><text xml:space="preserve" font-family="Helvetica-Light,Helvetica" font-size="22.4" fill="#FEFFFF" transform="matrix(1.00, 0.00, -0.00, -1.00, 198.1, 130.4)">C</text><text xml:space="preserve" font-family="Helvetica-Light,Helvetica" font-size="22.4" fill="#FEFFFF" transform="matrix(1.00, 0.00, -0.00, -1.00, 214.3, 130.4)">h</text><text xml:space="preserve" font-family="Helvetica-Light,Helvetica" font-size="22.4" fill="#FEFFFF" transform="matrix(1.00, 0.00, -0.00, -1.00, 226.7, 130.4)">a</text><text xml:space="preserve" font-family="Helvetica-Light,Helvetica" font-size="22.4" fill="#FEFFFF" transform="matrix(1.00, 0.00, -0.00, -1.00, 239.2, 130.4)">n</text><text xml:space="preserve" font-family="Helvetica-Light,Helvetica" font-size="22.4" fill="#FEFFFF" transform="matrix(1.00, 0.00, -0.00, -1.00, 251.7, 130.4)">g</text><text xml:space="preserve" font-family="Helvetica-Light,Helvetica" font-size="22.4" fill="#FEFFFF" transform="matrix(1.00, 0.00, -0.00, -1.00, 265.4, 130.4)">e</text><text xml:space="preserve" font-family="Helvetica-Light,Helvetica" font-size="22.4" fill="#FEFFFF" transform="matrix(1.00, 0.00, -0.00, -1.00, 277.8, 130.4)"> </text><text xml:space="preserve" font-family="Helvetica-Light,Helvetica" font-size="22.4" fill="#FEFFFF" transform="matrix(1.00, 0.00, -0.00, -1.00, 284.1, 130.4)">E</text><text xml:space="preserve" font-family="Helvetica-Light,Helvetica" font-size="22.4" fill="#FEFFFF" transform="matrix(1.00, 0.00, -0.00, -1.00, 297.8, 130.4)">v</text><text xml:space="preserve" font-family="Helvetica-Light,Helvetica" font-size="22.4" fill="#FEFFFF" transform="matrix(1.00, 0.00, -0.00, -1.00, 309.0, 130.4)">e</text><text xml:space="preserve" font-family="Helvetica-Light,Helvetica" font-size="22.4" fill="#FEFFFF" transform="matrix(1.00, 0.00, -0.00, -1.00, 321.5, 130.4)">n</text><text xml:space="preserve" font-family="Helvetica-Light,Helvetica" font-size="22.4" fill="#FEFFFF" transform="matrix(1.00, 0.00, -0.00, -1.00, 333.9, 130.4)">t</text><text xml:space="preserve" font-family="Helvetica-Light,Helvetica" font-size="22.4" fill="#FEFFFF" transform="matrix(1.00, 0.00, -0.00, -1.00, 340.1, 130.4)"> </text><text xml:space="preserve" font-family="Helvetica-Light,Helvetica" font-size="16.8" fill="#FEFFFF" transform="matrix(1.00, 0.00, -0.00, -1.00, 114.0, 81.3)">•</text><text xml:space="preserve" font-family="Helvetica-Light,Helvetica" font-size="22.4" fill="#FEFFFF" transform="matrix(1.00, 0.00, -0.00, -1.00, 134.7, 79.6)">S</text><text xml:space="preserve" font-family="Helvetica-Light,Helvetica" font-size="22.4" fill="#FEFFFF" transform="matrix(1.00, 0.00, -0.00, -1.00, 148.3, 79.6)">e</text><text xml:space="preserve" font-family="Helvetica-Light,Helvetica" font-size="22.4" fill="#FEFFFF" transform="matrix(1.00, 0.00, -0.00, -1.00, 160.8, 79.6)">l</text><text xml:space="preserve" font-family="Helvetica-Light,Helvetica" font-size="22.4" fill="#FEFFFF" transform="matrix(1.00, 0.00, -0.00, -1.00, 165.8, 79.6)">e</text><text xml:space="preserve" font-family="Helvetica-Light,Helvetica" font-size="22.4" fill="#FEFFFF" transform="matrix(1.00, 0.00, -0.00, -1.00, 178.3, 79.6)">c</text><text xml:space="preserve" font-family="Helvetica-Light,Helvetica" font-size="22.4" fill="#FEFFFF" transform="matrix(1.00, 0.00, -0.00, -1.00, 190.7, 79.6)">t</text><text xml:space="preserve" font-family="Helvetica-Light,Helvetica" font-size="22.4" fill="#FEFFFF" transform="matrix(1.00, 0.00, -0.00, -1.00, 197.0, 79.6)">i</text><text xml:space="preserve" font-family="Helvetica-Light,Helvetica" font-size="22.4" fill="#FEFFFF" transform="matrix(1.00, 0.00, -0.00, -1.00, 201.9, 79.6)">o</text><text xml:space="preserve" font-family="Helvetica-Light,Helvetica" font-size="22.4" fill="#FEFFFF" transform="matrix(1.00, 0.00, -0.00, -1.00, 214.4, 79.6)">n</text><text xml:space="preserve" font-family="Helvetica-Light,Helvetica" font-size="22.4" fill="#FEFFFF" transform="matrix(1.00, 0.00, -0.00, -1.00, 226.9, 79.6)">:</text><text xml:space="preserve" font-family="Helvetica-Light,Helvetica" font-size="22.4" fill="#FEFFFF" transform="matrix(1.00, 0.00, -0.00, -1.00, 233.1, 79.6)">:</text><text xml:space="preserve" font-family="Helvetica-Light,Helvetica" font-size="22.4" fill="#FEFFFF" transform="matrix(1.00, 0.00, -0.00, -1.00, 239.3, 79.6)">A</text><text xml:space="preserve" font-family="Helvetica-Light,Helvetica" font-size="22.4" fill="#FEFFFF" transform="matrix(1.00, 0.00, -0.00, -1.00, 254.3, 79.6)">d</text><text xml:space="preserve" font-family="Helvetica-Light,Helvetica" font-size="22.4" fill="#FEFFFF" transform="matrix(1.00, 0.00, -0.00, -1.00, 268.0, 79.6)">d</text><text xml:space="preserve" font-family="Helvetica-Light,Helvetica" font-size="22.4" fill="#FEFFFF" transform="matrix(1.00, 0.00, -0.00, -1.00, 281.7, 79.6)">S</text><text xml:space="preserve" font-family="Helvetica-Light,Helvetica" font-size="22.4" fill="#FEFFFF" transform="matrix(1.00, 0.00, -0.00, -1.00, 295.4, 79.6)">e</text><text xml:space="preserve" font-family="Helvetica-Light,Helvetica" font-size="22.4" fill="#FEFFFF" transform="matrix(1.00, 0.00, -0.00, -1.00, 307.8, 79.6)">l</text><text xml:space="preserve" font-family="Helvetica-Light,Helvetica" font-size="22.4" fill="#FEFFFF" transform="matrix(1.00, 0.00, -0.00, -1.00, 312.8, 79.6)">e</text><text xml:space="preserve" font-family="Helvetica-Light,Helvetica" font-size="22.4" fill="#FEFFFF" transform="matrix(1.00, 0.00, -0.00, -1.00, 325.3, 79.6)">c</text><text xml:space="preserve" font-family="Helvetica-Light,Helvetica" font-size="22.4" fill="#FEFFFF" transform="matrix(1.00, 0.00, -0.00, -1.00, 337.8, 79.6)">t</text><text xml:space="preserve" font-family="Helvetica-Light,Helvetica" font-size="22.4" fill="#FEFFFF" transform="matrix(1.00, 0.00, -0.00, -1.00, 344.0, 79.6)">i</text><text xml:space="preserve" font-family="Helvetica-Light,Helvetica" font-size="22.4" fill="#FEFFFF" transform="matrix(1.00, 0.00, -0.00, -1.00, 349.0, 79.6)">o</text><text xml:space="preserve" font-family="Helvetica-Light,Helvetica" font-size="22.4" fill="#FEFFFF" transform="matrix(1.00, 0.00, -0.00, -1.00, 361.4, 79.6)">n</text><text xml:space="preserve" font-family="Helvetica-Light,Helvetica" font-size="22.4" fill="#FEFFFF" transform="matrix(1.00, 0.00, -0.00, -1.00, 373.9, 79.6)">L</text><text xml:space="preserve" font-family="Helvetica-Light,Helvetica" font-size="22.4" fill="#FEFFFF" transform="matrix(1.00, 0.00, -0.00, -1.00, 386.4, 79.6)">i</text><text xml:space="preserve" font-family="Helvetica-Light,Helvetica" font-size="22.4" fill="#FEFFFF" transform="matrix(1.00, 0.00, -0.00, -1.00, 391.3, 79.6)">s</text><text xml:space="preserve" font-family="Helvetica-Light,Helvetica" font-size="22.4" fill="#FEFFFF" transform="matrix(1.00, 0.00, -0.00, -1.00, 402.5, 79.6)">t</text><text xml:space="preserve" font-family="Helvetica-Light,Helvetica" font-size="22.4" fill="#FEFFFF" transform="matrix(1.00, 0.00, -0.00, -1.00, 408.8, 79.6)">e</text><text xml:space="preserve" font-family="Helvetica-Light,Helvetica" font-size="22.4" fill="#FEFFFF" transform="matrix(1.00, 0.00, -0.00, -1.00, 421.2, 79.6)">n</text><text xml:space="preserve" font-family="Helvetica-Light,Helvetica" font-size="22.4" fill="#FEFFFF" transform="matrix(1.00, 0.00, -0.00, -1.00, 433.7, 79.6)">e</text><text xml:space="preserve" font-family="Helvetica-Light,Helvetica" font-size="22.4" fill="#FEFFFF" transform="matrix(1.00, 0.00, -0.00, -1.00, 446.2, 79.6)">r</text><text xml:space="preserve" font-family="Helvetica-Light,Helvetica" font-size="80.0" fill="#FEFFFF" transform="matrix(1.00, 0.00, -0.00, -1.00, 347.5, 633.4)">S</text><text xml:space="preserve" font-family="Helvetica-Light,Helvetica" font-size="80.0" fill="#FEFFFF" transform="matrix(1.00, 0.00, -0.00, -1.00, 396.4, 633.4)">e</text><text xml:space="preserve" font-family="Helvetica-Light,Helvetica" font-size="80.0" fill="#FEFFFF" transform="matrix(1.00, 0.00, -0.00, -1.00, 440.8, 633.4)">l</text><text xml:space="preserve" font-family="Helvetica-Light,Helvetica" font-size="80.0" fill="#FEFFFF" transform="matrix(1.00, 0.00, -0.00, -1.00, 458.6, 633.4)">e</text><text xml:space="preserve" font-family="Helvetica-Light,Helvetica" font-size="80.0" fill="#FEFFFF" transform="matrix(1.00, 0.00, -0.00, -1.00, 503.1, 633.4)">c</text><text xml:space="preserve" font-family="Helvetica-Light,Helvetica" font-size="80.0" fill="#FEFFFF" transform="matrix(1.00, 0.00, -0.00, -1.00, 547.6, 633.4)">t</text><text xml:space="preserve" font-family="Helvetica-Light,Helvetica" font-size="80.0" fill="#FEFFFF" transform="matrix(1.00, 0.00, -0.00, -1.00, 569.8, 633.4)">i</text><text xml:space="preserve" font-family="Helvetica-Light,Helvetica" font-size="80.0" fill="#FEFFFF" transform="matrix(1.00, 0.00, -0.00, -1.00, 587.6, 633.4)">o</text><text xml:space="preserve" font-family="Helvetica-Light,Helvetica" font-size="80.0" fill="#FEFFFF" transform="matrix(1.00, 0.00, -0.00, -1.00, 632.0, 633.4)">n</text><g><clipPath id="clip0x7fc5db8b1de0"><path d="M 490.0 120.5 L 849.0 120.5 L 849.0 483.5 L 490.0 483.5 Z M 490.0 120.5 "></path></clipPath><g clip-path="url(#clip0x7fc5db8b1de0)"><path d="M 491.0 482.0 L 848.0 482.0 L 848.0 121.0 L 491.0 121.0 Z M 491.0 482.5 " fill="#FEFFFE"></path></g></g><g><clipPath id="clip0x7fc5db8b2bd0"><path d="M 491.0 474.0 L 848.0 474.0 L 848.0 131.0 L 491.0 131.0 Z M 491.0 473.5 "></path></clipPath><g clip-path="url(#clip0x7fc5db8b2bd0)"><g><clipPath id="clip0x7fc5db8b3320"><path d="M 491.0 130.5 L 848.0 130.5 L 848.0 473.5 L 491.0 473.5 Z M 491.0 130.5 "></path></clipPath><g clip-path="url(#clip0x7fc5db8b3320)"><image xlink:href="B2F0CDA4D0B48A8B3FE3F6F458EE095E.png" width="357.00" height="343.00" transform="matrix(1.00, 0.00, -0.00, -1.00, 491.0, 474.0)"></image></g></g></g></g></g></svg>